<svg width="86" height="76" viewBox="0 0 86 76" fill="none" xmlns="http://www.w3.org/2000/svg">
<path d="M82 41.609C82 42.594 82.801 43.395 83.786 43.395C84.771 43.395 85.572 42.594 85.572 41.609C85.572 40.624 84.771 39.823 83.786 39.823C82.801 39.823 82 40.624 82 41.609ZM83.786 40.323C84.495 40.323 85.072 40.9 85.072 41.609C85.072 42.318 84.495 42.895 83.786 42.895C83.077 42.895 82.5 42.318 82.5 41.609C82.5 40.9 83.077 40.323 83.786 40.323Z" fill="#FF8C00"/>
<path d="M42.775 17.537C32.446 17.537 24.043 25.94 24.043 36.269C24.043 40.87 25.721 45.282 28.818 48.759L28.872 48.839C33.529 56.277 33.869 63.718 34.072 68.17C34.1 68.789 34.126 69.35 34.16 69.845C34.468 74.371 38.812 75.984 42.775 75.984C46.738 75.984 51.082 74.371 51.39 69.846C51.424 69.35 51.45 68.789 51.478 68.171C51.682 63.716 52.021 56.268 56.69 48.823L56.73 48.77C59.812 45.332 61.508 40.897 61.508 36.27C61.507 25.94 53.104 17.537 42.775 17.537ZM50.217 64.297L35.514 66.934C35.446 65.603 35.34 64.079 35.126 62.411L50.782 60.123C50.508 61.606 50.332 63.008 50.217 64.297ZM49.979 68.101C49.952 68.707 49.926 69.257 49.894 69.743C49.594 74.141 44.37 74.483 42.775 74.483C41.18 74.483 35.956 74.141 35.656 69.742C35.63 69.353 35.608 68.912 35.587 68.445L50.099 65.842C50.047 66.655 50.01 67.416 49.979 68.101ZM55.621 47.765L55.503 47.875L55.456 47.965C53.154 51.618 51.861 55.251 51.106 58.559L34.908 60.926C34.268 57.03 32.959 52.51 30.091 47.961L30.082 47.947L29.99 47.825C27.122 44.656 25.542 40.552 25.542 36.269C25.542 26.767 33.272 19.037 42.774 19.037C52.276 19.037 60.006 26.767 60.006 36.269C60.007 40.551 58.428 44.655 55.621 47.765Z" fill="#B3B0B0"/>
<path d="M43.525 10.233H42.025V14.353H43.525V10.233Z" fill="#FF8C00"/>
<path d="M29.8212 18.5052L27.1982 15.8829L26.1377 16.9437L28.7607 19.566L29.8212 18.5052Z" fill="#DAA520"/>
<path d="M21.68 30.8396L17.5589 30.4642L17.4229 31.9581L21.5439 32.3334L21.68 30.8396Z" fill="#FF8C00"/>
<path d="M24.3159 47.113L21.1318 49.7352L22.0854 50.8931L25.2695 48.2708L24.3159 47.113Z" fill="#DAA520"/>
<path d="M59.4141 16.944L58.3535 15.8833L55.7308 18.5059L56.7915 19.5666L59.4141 16.944Z" fill="#DAA520"/>
<path d="M68.1318 31.9593L67.996 30.4655L63.876 30.8399L64.0117 32.3337L68.1318 31.9593Z" fill="#FF8C00"/>
<path d="M60.2838 48.2738L63.4691 50.8962L64.4225 49.7382L61.2372 47.1158L60.2838 48.2738Z" fill="#DAA520"/>
<path d="M42.775 21.9341V23.4341C49.852 23.4341 55.61 29.1921 55.61 36.2691H57.11C57.11 28.3641 50.679 21.9341 42.775 21.9341Z" fill="#DAA520"/>
<path d="M1.225 28.645L3.207 27.603L5.189 28.645L4.811 26.438L6.415 24.875L4.198 24.553L3.207 22.545L2.216 24.553L0 24.875L1.604 26.438L1.225 28.645ZM1.074 25.224L2.548 25.01L3.207 23.675L3.866 25.01L5.34 25.224L4.274 26.264L4.525 27.732L3.207 27.04L1.889 27.732L2.14 26.264L1.074 25.224Z" fill="#FF8C00"/>
<path d="M21.618 5.763L22.986 5.044L24.354 5.763L24.093 4.24L25.2 3.161L23.67 2.938L22.986 1.552L22.302 2.938L20.772 3.161L21.879 4.24L21.618 5.763ZM21.847 3.509L22.635 3.395L22.987 2.682L23.339 3.395L24.127 3.509L23.557 4.065L23.691 4.849L22.987 4.479L22.283 4.849L22.417 4.065L21.847 3.509Z" fill="#DAA520"/>
<path d="M81.782 8.86804L80.88 11.645H77.961L80.322 13.362L79.42 16.138L81.782 14.422L84.144 16.138L83.242 13.362L85.603 11.645H82.684L81.782 8.86804ZM82.654 13.171L83.193 14.829L81.782 13.804L80.371 14.829L80.91 13.171L79.499 12.145H81.244L81.783 10.486L82.322 12.145H84.067L82.654 13.171Z" fill="#DAA520"/>
<path d="M73.826 4.484C75.062 4.484 76.068 3.478 76.068 2.242C76.068 1.006 75.062 0 73.826 0C72.59 0 71.584 1.006 71.584 2.242C71.584 3.478 72.589 4.484 73.826 4.484ZM73.826 0.5C74.786 0.5 75.568 1.282 75.568 2.242C75.568 3.202 74.786 3.984 73.826 3.984C72.866 3.984 72.084 3.202 72.084 2.242C72.084 1.282 72.865 0.5 73.826 0.5Z" fill="#FF8C00"/>
<path d="M9.65299 14.249C10.955 14.249 12.014 13.19 12.014 11.888C12.014 10.586 10.955 9.52698 9.65299 9.52698C8.35099 9.52698 7.29199 10.586 7.29199 11.888C7.29199 13.19 8.35099 14.249 9.65299 14.249ZM9.65299 10.027C10.679 10.027 11.514 10.862 11.514 11.888C11.514 12.914 10.679 13.749 9.65299 13.749C8.62699 13.749 7.79199 12.914 7.79199 11.888C7.79199 10.862 8.62699 10.027 9.65299 10.027Z" fill="#DAA520"/>
</svg>
